REM DIRINDEX 1\2,1\3,1\4,1\5
REM DIRNAME folder01,folder02,folder03,folder04,folder05
TITLE ""
FILE "Chapter_18.mp3" MP3
  TRACK 01 AUDIO
    TITLE "0:"
    INDEX 01 00:00:00
  TRACK 02 AUDIO
    TITLE "5:cjc087_5570"
    INDEX 01 00:00:09
  TRACK 03 AUDIO
    TITLE "0:"
    INDEX 01 00:02:26
  TRACK 04 AUDIO
    TITLE "5:cjc087_5571"
    INDEX 01 00:03:63
  TRACK 05 AUDIO
    TITLE "0:"
    INDEX 01 00:06:06
  TRACK 06 AUDIO
    TITLE "4:cjc087_5572"
    INDEX 01 00:07:05
  TRACK 07 AUDIO
    TITLE "3:cjc087_5573"
    INDEX 01 00:08:56
  TRACK 08 AUDIO
    TITLE "0:"
    INDEX 01 00:10:53
  TRACK 09 AUDIO
    TITLE "4:cjc087_5574"
    INDEX 01 00:11:48
  TRACK 10 AUDIO
    TITLE "3:cjc087_5575"
    INDEX 01 00:12:65
  TRACK 11 AUDIO
    TITLE "0:"
    INDEX 01 00:14:66
  TRACK 12 AUDIO
    TITLE "4:cjc087_5576"
    INDEX 01 00:15:66
  TRACK 13 AUDIO
    TITLE "3:cjc087_5577"
    INDEX 01 00:17:74
  TRACK 14 AUDIO
    TITLE "0:"
    INDEX 01 00:20:10
  TRACK 15 AUDIO
    TITLE "4:cjc087_5578"
    INDEX 01 00:21:09
  TRACK 16 AUDIO
    TITLE "3:cjc087_5579"
    INDEX 01 00:22:56
  TRACK 17 AUDIO
    TITLE "0:"
    INDEX 01 00:25:09
  TRACK 18 AUDIO
    TITLE "4:cjc087_5580"
    INDEX 01 00:26:09
  TRACK 19 AUDIO
    TITLE "3:cjc087_5581"
    INDEX 01 00:27:49
  TRACK 20 AUDIO
    TITLE "0:"
    INDEX 01 00:29:44
  TRACK 21 AUDIO
    TITLE "4:cjc087_5582"
    INDEX 01 00:30:44
  TRACK 22 AUDIO
    TITLE "3:cjc087_5583"
    INDEX 01 00:32:21
  TRACK 23 AUDIO
    TITLE "0:"
    INDEX 01 00:35:43
  TRACK 24 AUDIO
    TITLE "4:cjc087_5584"
    INDEX 01 00:36:40
  TRACK 25 AUDIO
    TITLE "3:cjc087_5585"
    INDEX 01 00:38:24
  TRACK 26 AUDIO
    TITLE "0:"
    INDEX 01 00:40:48
  TRACK 27 AUDIO
    TITLE "2:cjc087_5586"
    INDEX 01 00:42:04
  TRACK 28 AUDIO
    TITLE "0:"
    INDEX 01 00:55:03
  TRACK 29 AUDIO
    TITLE "5:cjc087_5587"
    INDEX 01 00:56:45
  TRACK 30 AUDIO
    TITLE "0:"
    INDEX 01 00:59:00
  TRACK 31 AUDIO
    TITLE "4:cjc087_5588"
    INDEX 01 00:59:71
  TRACK 32 AUDIO
    TITLE "3:cjc087_5589"
    INDEX 01 01:01:74
  TRACK 33 AUDIO
    TITLE "0:"
    INDEX 01 01:04:58
  TRACK 34 AUDIO
    TITLE "4:cjc087_5590"
    INDEX 01 01:05:56
  TRACK 35 AUDIO
    TITLE "3:cjc087_5591"
    INDEX 01 01:07:68
  TRACK 36 AUDIO
    TITLE "0:"
    INDEX 01 01:10:22
  TRACK 37 AUDIO
    TITLE "4:cjc087_5592"
    INDEX 01 01:11:19
  TRACK 38 AUDIO
    TITLE "3:cjc087_5593"
    INDEX 01 01:12:64
  TRACK 39 AUDIO
    TITLE "0:"
    INDEX 01 01:14:74
  TRACK 40 AUDIO
    TITLE "4:cjc087_5594"
    INDEX 01 01:15:74
  TRACK 41 AUDIO
    TITLE "3:cjc087_5595"
    INDEX 01 01:17:71
  TRACK 42 AUDIO
    TITLE "0:"
    INDEX 01 01:20:06
  TRACK 43 AUDIO
    TITLE "4:cjc087_5596"
    INDEX 01 01:21:04
  TRACK 44 AUDIO
    TITLE "3:cjc087_5597"
    INDEX 01 01:24:02
  TRACK 45 AUDIO
    TITLE "0:"
    INDEX 01 01:27:61
  TRACK 46 AUDIO
    TITLE "4:cjc087_5598"
    INDEX 01 01:28:59
  TRACK 47 AUDIO
    TITLE "3:cjc087_5599"
    INDEX 01 01:31:24
  TRACK 48 AUDIO
    TITLE "0:"
    INDEX 01 01:33:66
  TRACK 49 AUDIO
    TITLE "4:cjc087_5600"
    INDEX 01 01:34:63
  TRACK 50 AUDIO
    TITLE "3:cjc087_5601"
    INDEX 01 01:36:41
  TRACK 51 AUDIO
    TITLE "0:"
    INDEX 01 01:38:16
  TRACK 52 AUDIO
    TITLE "5:cjc087_5602"
    INDEX 01 01:39:51
  TRACK 53 AUDIO
    TITLE "0:"
    INDEX 01 01:42:00
  TRACK 54 AUDIO
    TITLE "4:cjc087_5603"
    INDEX 01 01:42:73
  TRACK 55 AUDIO
    TITLE "3:cjc087_5604"
    INDEX 01 01:44:66
  TRACK 56 AUDIO
    TITLE "0:"
    INDEX 01 01:47:62
  TRACK 57 AUDIO
    TITLE "4:cjc087_5605"
    INDEX 01 01:48:60
  TRACK 58 AUDIO
    TITLE "3:cjc087_5606"
    INDEX 01 01:50:33
  TRACK 59 AUDIO
    TITLE "0:"
    INDEX 01 01:53:00
  TRACK 60 AUDIO
    TITLE "4:cjc087_5607"
    INDEX 01 01:53:72
  TRACK 61 AUDIO
    TITLE "3:cjc087_5608"
    INDEX 01 01:55:34
  TRACK 62 AUDIO
    TITLE "0:"
    INDEX 01 01:57:00
  TRACK 63 AUDIO
    TITLE "4:cjc087_5609"
    INDEX 01 01:58:01
  TRACK 64 AUDIO
    TITLE "3:cjc087_5610"
    INDEX 01 02:00:67
  TRACK 65 AUDIO
    TITLE "0:"
    INDEX 01 02:02:67
  TRACK 66 AUDIO
    TITLE "4:cjc087_5611"
    INDEX 01 02:03:65
  TRACK 67 AUDIO
    TITLE "3:cjc087_5612"
    INDEX 01 02:06:30
  TRACK 68 AUDIO
    TITLE "0:"
    INDEX 01 02:09:09
  TRACK 69 AUDIO
    TITLE "4:cjc087_5613"
    INDEX 01 02:10:04
  TRACK 70 AUDIO
    TITLE "3:cjc087_5614"
    INDEX 01 02:12:46
  TRACK 71 AUDIO
    TITLE "0:"
    INDEX 01 02:15:05
  TRACK 72 AUDIO
    TITLE "4:cjc087_5615"
    INDEX 01 02:16:03
  TRACK 73 AUDIO
    TITLE "3:cjc087_5616"
    INDEX 01 02:18:39
  TRACK 74 AUDIO
    TITLE "0:"
    INDEX 01 02:20:61
  TRACK 75 AUDIO
    TITLE "4:cjc087_5617"
    INDEX 01 02:21:59
  TRACK 76 AUDIO
    TITLE "3:cjc087_5618"
    INDEX 01 02:23:66
  TRACK 77 AUDIO
    TITLE "0:"
    INDEX 01 02:26:41
  TRACK 78 AUDIO
    TITLE "5:cjc087_5619"
    INDEX 01 02:28:04
  TRACK 79 AUDIO
    TITLE "0:"
    INDEX 01 02:30:29
  TRACK 80 AUDIO
    TITLE "4:cjc087_5620"
    INDEX 01 02:31:28
  TRACK 81 AUDIO
    TITLE "3:cjc087_5621"
    INDEX 01 02:33:01
  TRACK 82 AUDIO
    TITLE "0:"
    INDEX 01 02:34:73
  TRACK 83 AUDIO
    TITLE "4:cjc087_5622"
    INDEX 01 02:35:73
  TRACK 84 AUDIO
    TITLE "3:cjc087_5623"
    INDEX 01 02:37:64
  TRACK 85 AUDIO
    TITLE "0:"
    INDEX 01 02:41:26
  TRACK 86 AUDIO
    TITLE "4:cjc087_5624"
    INDEX 01 02:42:24
  TRACK 87 AUDIO
    TITLE "3:cjc087_5625"
    INDEX 01 02:45:07
  TRACK 88 AUDIO
    TITLE "0:"
    INDEX 01 02:48:48
  TRACK 89 AUDIO
    TITLE "4:cjc087_5626"
    INDEX 01 02:49:44
  TRACK 90 AUDIO
    TITLE "3:cjc087_5627"
    INDEX 01 02:52:38
  TRACK 91 AUDIO
    TITLE "0:"
    INDEX 01 02:55:48
  TRACK 92 AUDIO
    TITLE "4:cjc087_5628"
    INDEX 01 02:56:46
  TRACK 93 AUDIO
    TITLE "3:cjc087_5629"
    INDEX 01 03:01:11
  TRACK 94 AUDIO
    TITLE "0:"
    INDEX 01 03:04:51
  TRACK 95 AUDIO
    TITLE "4:cjc087_5630"
    INDEX 01 03:05:50
  TRACK 96 AUDIO
    TITLE "3:cjc087_5631"
    INDEX 01 03:07:14
  TRACK 97 AUDIO
    TITLE "0:"
    INDEX 01 03:08:66
  TRACK 98 AUDIO
    TITLE "4:cjc087_5632"
    INDEX 01 03:09:66
  TRACK 99 AUDIO
    TITLE "3:cjc087_5633"
    INDEX 01 03:12:01
  TRACK 100 AUDIO
    TITLE "0:"
    INDEX 01 03:14:14
  TRACK 101 AUDIO
    TITLE "5:cjc087_5634"
    INDEX 01 03:15:51
  TRACK 102 AUDIO
    TITLE "0:"
    INDEX 01 03:18:04
  TRACK 103 AUDIO
    TITLE "4:cjc087_5635"
    INDEX 01 03:19:02
  TRACK 104 AUDIO
    TITLE "3:cjc087_5636"
    INDEX 01 03:21:59
  TRACK 105 AUDIO
    TITLE "0:"
    INDEX 01 03:25:18
  TRACK 106 AUDIO
    TITLE "4:cjc087_5637"
    INDEX 01 03:26:15
  TRACK 107 AUDIO
    TITLE "3:cjc087_5638"
    INDEX 01 03:28:34
  TRACK 108 AUDIO
    TITLE "0:"
    INDEX 01 03:30:50
  TRACK 109 AUDIO
    TITLE "4:cjc087_5639"
    INDEX 01 03:31:48
  TRACK 110 AUDIO
    TITLE "3:cjc087_5640"
    INDEX 01 03:34:17
  TRACK 111 AUDIO
    TITLE "0:"
    INDEX 01 03:37:15
  TRACK 112 AUDIO
    TITLE "4:cjc087_5641"
    INDEX 01 03:38:15
  TRACK 113 AUDIO
    TITLE "3:cjc087_5642"
    INDEX 01 03:40:12
  TRACK 114 AUDIO
    TITLE "0:"
    INDEX 01 03:42:20
  TRACK 115 AUDIO
    TITLE "4:cjc087_5643"
    INDEX 01 03:43:20
  TRACK 116 AUDIO
    TITLE "3:cjc087_5644"
    INDEX 01 03:44:74
  TRACK 117 AUDIO
    TITLE "0:"
    INDEX 01 03:47:21
  TRACK 118 AUDIO
    TITLE "4:cjc087_5645"
    INDEX 01 03:48:19
  TRACK 119 AUDIO
    TITLE "3:cjc087_5646"
    INDEX 01 03:49:65
  TRACK 120 AUDIO
    TITLE "0:"
    INDEX 01 03:51:52
  TRACK 121 AUDIO
    TITLE "4:cjc087_5647"
    INDEX 01 03:52:48
  TRACK 122 AUDIO
    TITLE "3:cjc087_5648"
    INDEX 01 03:54:37
  TRACK 123 AUDIO
    TITLE "0:"
    INDEX 01 03:57:16
  TRACK 124 AUDIO
    TITLE "4:cjc087_5649"
    INDEX 01 03:58:13
  TRACK 125 AUDIO
    TITLE "3:cjc087_5650"
    INDEX 01 04:00:08
  TRACK 126 AUDIO
    TITLE "0:"
    INDEX 01 04:01:65
  TRACK 127 AUDIO
    TITLE "5:cjc087_5651"
    INDEX 01 04:03:26
  TRACK 128 AUDIO
    TITLE "0:"
    INDEX 01 04:05:27
  TRACK 129 AUDIO
    TITLE "4:cjc087_5652"
    INDEX 01 04:06:25
  TRACK 130 AUDIO
    TITLE "3:cjc087_5653"
    INDEX 01 04:08:25
  TRACK 131 AUDIO
    TITLE "0:"
    INDEX 01 04:10:46
  TRACK 132 AUDIO
    TITLE "4:cjc087_5654"
    INDEX 01 04:11:45
  TRACK 133 AUDIO
    TITLE "3:cjc087_5655"
    INDEX 01 04:14:55
  TRACK 134 AUDIO
    TITLE "0:"
    INDEX 01 04:17:44
  TRACK 135 AUDIO
    TITLE "4:cjc087_5656"
    INDEX 01 04:18:42
  TRACK 136 AUDIO
    TITLE "3:cjc087_5657"
    INDEX 01 04:21:32
  TRACK 137 AUDIO
    TITLE "0:"
    INDEX 01 04:24:48
  TRACK 138 AUDIO
    TITLE "4:cjc087_5658"
    INDEX 01 04:25:44
  TRACK 139 AUDIO
    TITLE "3:cjc087_5659"
    INDEX 01 04:27:40
  TRACK 140 AUDIO
    TITLE "0:"
    INDEX 01 04:30:25
  TRACK 141 AUDIO
    TITLE "4:cjc087_5660"
    INDEX 01 04:31:25
  TRACK 142 AUDIO
    TITLE "3:cjc087_5661"
    INDEX 01 04:33:06
  TRACK 143 AUDIO
    TITLE "0:"
    INDEX 01 04:35:42
  TRACK 144 AUDIO
    TITLE "4:cjc087_5662"
    INDEX 01 04:36:39
  TRACK 145 AUDIO
    TITLE "3:cjc087_5663"
    INDEX 01 04:37:62
  TRACK 146 AUDIO
    TITLE "0:"
    INDEX 01 04:39:73
  TRACK 147 AUDIO
    TITLE "4:cjc087_5664"
    INDEX 01 04:40:63
  TRACK 148 AUDIO
    TITLE "3:cjc087_5665"
    INDEX 01 04:43:32
  TRACK 149 AUDIO
    TITLE "0:"
    INDEX 01 04:46:16
  TRACK 150 AUDIO
    TITLE "2:cjc087_5666"
    INDEX 01 04:47:51
  TRACK 151 AUDIO
    TITLE "0:"
    INDEX 01 05:02:09
  TRACK 152 AUDIO
    TITLE "5:cjc087_5667"
    INDEX 01 05:03:50
  TRACK 153 AUDIO
    TITLE "0:"
    INDEX 01 05:05:74
  TRACK 154 AUDIO
    TITLE "4:cjc087_5668"
    INDEX 01 05:06:72
  TRACK 155 AUDIO
    TITLE "3:cjc087_5669"
    INDEX 01 05:08:32
  TRACK 156 AUDIO
    TITLE "0:"
    INDEX 01 05:10:19
  TRACK 157 AUDIO
    TITLE "4:cjc087_5670"
    INDEX 01 05:11:16
  TRACK 158 AUDIO
    TITLE "3:cjc087_5671"
    INDEX 01 05:12:74
  TRACK 159 AUDIO
    TITLE "0:"
    INDEX 01 05:15:30
  TRACK 160 AUDIO
    TITLE "4:cjc087_5672"
    INDEX 01 05:16:27
  TRACK 161 AUDIO
    TITLE "3:cjc087_5673"
    INDEX 01 05:18:71
  TRACK 162 AUDIO
    TITLE "0:"
    INDEX 01 05:21:64
  TRACK 163 AUDIO
    TITLE "4:cjc087_5674"
    INDEX 01 05:22:67
  TRACK 164 AUDIO
    TITLE "3:cjc087_5675"
    INDEX 01 05:24:40
  TRACK 165 AUDIO
    TITLE "0:"
    INDEX 01 05:26:51
  TRACK 166 AUDIO
    TITLE "4:cjc087_5676"
    INDEX 01 05:27:49
  TRACK 167 AUDIO
    TITLE "3:cjc087_5677"
    INDEX 01 05:29:16
  TRACK 168 AUDIO
    TITLE "0:"
    INDEX 01 05:31:05
  TRACK 169 AUDIO
    TITLE "4:cjc087_5678"
    INDEX 01 05:32:03
  TRACK 170 AUDIO
    TITLE "3:cjc087_5679"
    INDEX 01 05:33:59
  TRACK 171 AUDIO
    TITLE "0:"
    INDEX 01 05:36:06
  TRACK 172 AUDIO
    TITLE "4:cjc087_5680"
    INDEX 01 05:37:04
  TRACK 173 AUDIO
    TITLE "3:cjc087_5681"
    INDEX 01 05:38:70
  TRACK 174 AUDIO
    TITLE "0:"
    INDEX 01 05:40:65
  TRACK 175 AUDIO
    TITLE "5:cjc087_5682"
    INDEX 01 05:42:27
  TRACK 176 AUDIO
    TITLE "0:"
    INDEX 01 05:44:49
  TRACK 177 AUDIO
    TITLE "4:cjc087_5683"
    INDEX 01 05:45:46
  TRACK 178 AUDIO
    TITLE "3:cjc087_5684"
    INDEX 01 05:47:20
  TRACK 179 AUDIO
    TITLE "0:"
    INDEX 01 05:49:05
  TRACK 180 AUDIO
    TITLE "4:cjc087_5685"
    INDEX 01 05:50:18
  TRACK 181 AUDIO
    TITLE "3:cjc087_5686"
    INDEX 01 05:52:33
  TRACK 182 AUDIO
    TITLE "0:"
    INDEX 01 05:54:34
  TRACK 183 AUDIO
    TITLE "4:cjc087_5687"
    INDEX 01 05:55:33
  TRACK 184 AUDIO
    TITLE "3:cjc087_5688"
    INDEX 01 05:57:01
  TRACK 185 AUDIO
    TITLE "0:"
    INDEX 01 05:59:41
  TRACK 186 AUDIO
    TITLE "4:cjc087_5689"
    INDEX 01 06:00:46
  TRACK 187 AUDIO
    TITLE "3:cjc087_5690"
    INDEX 01 06:02:25
  TRACK 188 AUDIO
    TITLE "0:"
    INDEX 01 06:04:26
  TRACK 189 AUDIO
    TITLE "4:cjc087_5691"
    INDEX 01 06:05:26
  TRACK 190 AUDIO
    TITLE "3:cjc087_5692"
    INDEX 01 06:07:46
  TRACK 191 AUDIO
    TITLE "0:"
    INDEX 01 06:10:13
  TRACK 192 AUDIO
    TITLE "4:cjc087_5693"
    INDEX 01 06:11:13
  TRACK 193 AUDIO
    TITLE "3:cjc087_5694"
    INDEX 01 06:13:27
  TRACK 194 AUDIO
    TITLE "0:"
    INDEX 01 06:15:61
  TRACK 195 AUDIO
    TITLE "4:cjc087_5695"
    INDEX 01 06:16:57
  TRACK 196 AUDIO
    TITLE "3:cjc087_5696"
    INDEX 01 06:18:46
  TRACK 197 AUDIO
    TITLE "0:"
    INDEX 01 06:20:74
  TRACK 198 AUDIO
    TITLE "5:cjc087_5697"
    INDEX 01 06:22:34
  TRACK 199 AUDIO
    TITLE "0:"
    INDEX 01 06:24:62
  TRACK 200 AUDIO
    TITLE "4:cjc087_5698"
    INDEX 01 06:25:54
  TRACK 201 AUDIO
    TITLE "3:cjc087_5699"
    INDEX 01 06:27:72
  TRACK 202 AUDIO
    TITLE "0:"
    INDEX 01 06:30:47
  TRACK 203 AUDIO
    TITLE "4:cjc087_5700"
    INDEX 01 06:31:49
  TRACK 204 AUDIO
    TITLE "3:cjc087_5701"
    INDEX 01 06:34:14
  TRACK 205 AUDIO
    TITLE "0:"
    INDEX 01 06:37:26
  TRACK 206 AUDIO
    TITLE "4:cjc087_5702"
    INDEX 01 06:38:25
  TRACK 207 AUDIO
    TITLE "3:cjc087_5703"
    INDEX 01 06:40:38
  TRACK 208 AUDIO
    TITLE "0:"
    INDEX 01 06:42:50
  TRACK 209 AUDIO
    TITLE "4:cjc087_5704"
    INDEX 01 06:43:46
  TRACK 210 AUDIO
    TITLE "3:cjc087_5705"
    INDEX 01 06:46:36
  TRACK 211 AUDIO
    TITLE "0:"
    INDEX 01 06:49:74
  TRACK 212 AUDIO
    TITLE "4:cjc087_5706"
    INDEX 01 06:50:73
  TRACK 213 AUDIO
    TITLE "3:cjc087_5707"
    INDEX 01 06:53:36
  TRACK 214 AUDIO
    TITLE "0:"
    INDEX 01 06:56:19
  TRACK 215 AUDIO
    TITLE "4:cjc087_5708"
    INDEX 01 06:57:17
  TRACK 216 AUDIO
    TITLE "3:cjc087_5709"
    INDEX 01 06:59:31
  TRACK 217 AUDIO
    TITLE "0:"
    INDEX 01 07:01:10
  TRACK 218 AUDIO
    TITLE "4:cjc087_5710"
    INDEX 01 07:02:04
  TRACK 219 AUDIO
    TITLE "3:cjc087_5711"
    INDEX 01 07:04:42
  TRACK 220 AUDIO
    TITLE "0:"
    INDEX 01 07:07:39
  TRACK 221 AUDIO
    TITLE "5:cjc087_5712"
    INDEX 01 07:08:67
  TRACK 222 AUDIO
    TITLE "0:"
    INDEX 01 07:11:15
  TRACK 223 AUDIO
    TITLE "4:cjc087_5713"
    INDEX 01 07:12:12
  TRACK 224 AUDIO
    TITLE "3:cjc087_5714"
    INDEX 01 07:13:55
  TRACK 225 AUDIO
    TITLE "0:"
    INDEX 01 07:15:65
  TRACK 226 AUDIO
    TITLE "4:cjc087_5715"
    INDEX 01 07:16:63
  TRACK 227 AUDIO
    TITLE "3:cjc087_5716"
    INDEX 01 07:19:51
  TRACK 228 AUDIO
    TITLE "0:"
    INDEX 01 07:23:30
  TRACK 229 AUDIO
    TITLE "4:cjc087_5717"
    INDEX 01 07:24:27
  TRACK 230 AUDIO
    TITLE "3:cjc087_5718"
    INDEX 01 07:27:39
  TRACK 231 AUDIO
    TITLE "0:"
    INDEX 01 07:31:31
  TRACK 232 AUDIO
    TITLE "4:cjc087_5719"
    INDEX 01 07:32:29
  TRACK 233 AUDIO
    TITLE "3:cjc087_5720"
    INDEX 01 07:35:19
  TRACK 234 AUDIO
    TITLE "0:"
    INDEX 01 07:38:68
  TRACK 235 AUDIO
    TITLE "4:cjc087_5721"
    INDEX 01 07:39:64
  TRACK 236 AUDIO
    TITLE "3:cjc087_5722"
    INDEX 01 07:44:42
  TRACK 237 AUDIO
    TITLE "0:"
    INDEX 01 07:47:67
  TRACK 238 AUDIO
    TITLE "4:cjc087_5723"
    INDEX 01 07:48:67
  TRACK 239 AUDIO
    TITLE "3:cjc087_5724"
    INDEX 01 07:52:02
  TRACK 240 AUDIO
    TITLE "0:"
    INDEX 01 07:56:08
  TRACK 241 AUDIO
    TITLE "4:cjc087_5725"
    INDEX 01 07:57:01
  TRACK 242 AUDIO
    TITLE "3:cjc087_5726"
    INDEX 01 08:00:05
  TRACK 243 AUDIO
    TITLE "0:"
    INDEX 01 08:04:23
  TRACK 244 AUDIO
    TITLE "4:cjc087_5727"
    INDEX 01 08:05:20
  TRACK 245 AUDIO
    TITLE "3:cjc087_5728"
    INDEX 01 08:06:69
  TRACK 246 AUDIO
    TITLE "0:"
    INDEX 01 08:08:73
  TRACK 247 AUDIO
    TITLE "5:cjc087_5729"
    INDEX 01 08:10:35
  TRACK 248 AUDIO
    TITLE "0:"
    INDEX 01 08:12:56
  TRACK 249 AUDIO
    TITLE "4:cjc087_5730"
    INDEX 01 08:13:53
  TRACK 250 AUDIO
    TITLE "3:cjc087_5731"
    INDEX 01 08:15:07
  TRACK 251 AUDIO
    TITLE "0:"
    INDEX 01 08:17:59
  TRACK 252 AUDIO
    TITLE "4:cjc087_5732"
    INDEX 01 08:18:52
  TRACK 253 AUDIO
    TITLE "3:cjc087_5733"
    INDEX 01 08:20:12
  TRACK 254 AUDIO
    TITLE "0:"
    INDEX 01 08:22:44
  TRACK 255 AUDIO
    TITLE "4:cjc087_5734"
    INDEX 01 08:23:42
  TRACK 256 AUDIO
    TITLE "3:cjc087_5735"
    INDEX 01 08:25:50
  TRACK 257 AUDIO
    TITLE "0:"
    INDEX 01 08:27:45
  TRACK 258 AUDIO
    TITLE "4:cjc087_5736"
    INDEX 01 08:28:45
  TRACK 259 AUDIO
    TITLE "3:cjc087_5737"
    INDEX 01 08:31:26
  TRACK 260 AUDIO
    TITLE "0:"
    INDEX 01 08:33:58
  TRACK 261 AUDIO
    TITLE "4:cjc087_5738"
    INDEX 01 08:34:53
  TRACK 262 AUDIO
    TITLE "3:cjc087_5739"
    INDEX 01 08:37:32
  TRACK 263 AUDIO
    TITLE "0:"
    INDEX 01 08:39:68
  TRACK 264 AUDIO
    TITLE "4:cjc087_5740"
    INDEX 01 08:40:68
  TRACK 265 AUDIO
    TITLE "3:cjc087_5741"
    INDEX 01 08:43:31
  TRACK 266 AUDIO
    TITLE "0:"
    INDEX 01 08:46:19
  TRACK 267 AUDIO
    TITLE "4:cjc087_5742"
    INDEX 01 08:47:17
  TRACK 268 AUDIO
    TITLE "3:cjc087_5743"
    INDEX 01 08:48:57
  TRACK 269 AUDIO
    TITLE "0:"
    INDEX 01 08:50:42
  TRACK 270 AUDIO
    TITLE "5:cjc087_5744"
    INDEX 01 08:52:00
  TRACK 271 AUDIO
    TITLE "0:"
    INDEX 01 08:54:27
  TRACK 272 AUDIO
    TITLE "4:cjc087_5745"
    INDEX 01 08:55:24
  TRACK 273 AUDIO
    TITLE "3:cjc087_5746"
    INDEX 01 08:57:21
  TRACK 274 AUDIO
    TITLE "0:"
    INDEX 01 08:58:73
  TRACK 275 AUDIO
    TITLE "4:cjc087_5747"
    INDEX 01 08:59:69
  TRACK 276 AUDIO
    TITLE "3:cjc087_5748"
    INDEX 01 09:01:27
  TRACK 277 AUDIO
    TITLE "0:"
    INDEX 01 09:04:60
  TRACK 278 AUDIO
    TITLE "4:cjc087_5749"
    INDEX 01 09:05:58
  TRACK 279 AUDIO
    TITLE "3:cjc087_5750"
    INDEX 01 09:06:73
  TRACK 280 AUDIO
    TITLE "0:"
    INDEX 01 09:08:40
  TRACK 281 AUDIO
    TITLE "4:cjc087_5751"
    INDEX 01 09:09:38
  TRACK 282 AUDIO
    TITLE "3:cjc087_5752"
    INDEX 01 09:12:11
  TRACK 283 AUDIO
    TITLE "0:"
    INDEX 01 09:15:11
  TRACK 284 AUDIO
    TITLE "4:cjc087_5753"
    INDEX 01 09:16:09
  TRACK 285 AUDIO
    TITLE "3:cjc087_5754"
    INDEX 01 09:18:02
  TRACK 286 AUDIO
    TITLE "0:"
    INDEX 01 09:20:42
  TRACK 287 AUDIO
    TITLE "4:cjc087_5755"
    INDEX 01 09:21:33
  TRACK 288 AUDIO
    TITLE "3:cjc087_5756"
    INDEX 01 09:23:52
  TRACK 289 AUDIO
    TITLE "0:"
    INDEX 01 09:26:21
  TRACK 290 AUDIO
    TITLE "4:cjc087_5757"
    INDEX 01 09:27:16
  TRACK 291 AUDIO
    TITLE "3:cjc087_5758"
    INDEX 01 09:29:09
  TRACK 292 AUDIO
    TITLE "0:"
    INDEX 01 09:31:24
  TRACK 293 AUDIO
    TITLE "2:cjc087_5759"
    INDEX 01 09:32:60
  TRACK 294 AUDIO
    TITLE "0:"
    INDEX 01 10:01:35
  TRACK 295 AUDIO
    TITLE "5:cjc087_5760"
    INDEX 01 10:03:04
  TRACK 296 AUDIO
    TITLE "0:"
    INDEX 01 10:05:29
  TRACK 297 AUDIO
    TITLE "4:cjc087_5761"
    INDEX 01 10:06:28
  TRACK 298 AUDIO
    TITLE "3:cjc087_5762"
    INDEX 01 10:08:33
  TRACK 299 AUDIO
    TITLE "0:"
    INDEX 01 10:11:00
  TRACK 300 AUDIO
    TITLE "4:cjc087_5763"
    INDEX 01 10:11:72
  TRACK 301 AUDIO
    TITLE "3:cjc087_5764"
    INDEX 01 10:14:69
  TRACK 302 AUDIO
    TITLE "0:"
    INDEX 01 10:18:23
  TRACK 303 AUDIO
    TITLE "4:cjc087_5765"
    INDEX 01 10:19:33
  TRACK 304 AUDIO
    TITLE "3:cjc087_5766"
    INDEX 01 10:21:45
  TRACK 305 AUDIO
    TITLE "0:"
    INDEX 01 10:24:46
  TRACK 306 AUDIO
    TITLE "4:cjc087_5767"
    INDEX 01 10:25:43
  TRACK 307 AUDIO
    TITLE "3:cjc087_5768"
    INDEX 01 10:28:04
  TRACK 308 AUDIO
    TITLE "0:"
    INDEX 01 10:30:68
  TRACK 309 AUDIO
    TITLE "4:cjc087_5769"
    INDEX 01 10:31:65
  TRACK 310 AUDIO
    TITLE "3:cjc087_5770"
    INDEX 01 10:33:68
  TRACK 311 AUDIO
    TITLE "0:"
    INDEX 01 10:36:55
  TRACK 312 AUDIO
    TITLE "4:cjc087_5771"
    INDEX 01 10:37:54
  TRACK 313 AUDIO
    TITLE "3:cjc087_5772"
    INDEX 01 10:40:19
  TRACK 314 AUDIO
    TITLE "0:"
    INDEX 01 10:43:15
  TRACK 315 AUDIO
    TITLE "4:cjc087_5773"
    INDEX 01 10:44:13
  TRACK 316 AUDIO
    TITLE "3:cjc087_5774"
    INDEX 01 10:46:49
  TRACK 317 AUDIO
    TITLE "0:"
    INDEX 01 10:49:34
  TRACK 318 AUDIO
    TITLE "5:cjc087_5775"
    INDEX 01 10:50:70
  TRACK 319 AUDIO
    TITLE "0:"
    INDEX 01 10:53:22
  TRACK 320 AUDIO
    TITLE "4:cjc087_5776"
    INDEX 01 10:54:27
  TRACK 321 AUDIO
    TITLE "3:cjc087_5777"
    INDEX 01 10:56:32
  TRACK 322 AUDIO
    TITLE "0:"
    INDEX 01 10:59:03
  TRACK 323 AUDIO
    TITLE "4:cjc087_5778"
    INDEX 01 11:00:02
  TRACK 324 AUDIO
    TITLE "3:cjc087_5779"
    INDEX 01 11:02:01
  TRACK 325 AUDIO
    TITLE "0:"
    INDEX 01 11:04:55
  TRACK 326 AUDIO
    TITLE "4:cjc087_5780"
    INDEX 01 11:05:52
  TRACK 327 AUDIO
    TITLE "3:cjc087_5781"
    INDEX 01 11:08:23
  TRACK 328 AUDIO
    TITLE "0:"
    INDEX 01 11:10:69
  TRACK 329 AUDIO
    TITLE "4:cjc087_5782"
    INDEX 01 11:11:69
  TRACK 330 AUDIO
    TITLE "3:cjc087_5783"
    INDEX 01 11:14:12
  TRACK 331 AUDIO
    TITLE "0:"
    INDEX 01 11:16:60
  TRACK 332 AUDIO
    TITLE "4:cjc087_5784"
    INDEX 01 11:17:57
  TRACK 333 AUDIO
    TITLE "3:cjc087_5785"
    INDEX 01 11:19:49
  TRACK 334 AUDIO
    TITLE "0:"
    INDEX 01 11:22:19
  TRACK 335 AUDIO
    TITLE "4:cjc087_5786"
    INDEX 01 11:23:19
  TRACK 336 AUDIO
    TITLE "3:cjc087_5787"
    INDEX 01 11:25:37
  TRACK 337 AUDIO
    TITLE "0:"
    INDEX 01 11:27:68
  TRACK 338 AUDIO
    TITLE "4:cjc087_5788"
    INDEX 01 11:28:67
  TRACK 339 AUDIO
    TITLE "3:cjc087_5789"
    INDEX 01 11:30:68
  TRACK 340 AUDIO
    TITLE "0:"
    INDEX 01 11:32:45
  TRACK 341 AUDIO
    TITLE "4:cjc087_5790"
    INDEX 01 11:33:45
  TRACK 342 AUDIO
    TITLE "3:cjc087_5791"
    INDEX 01 11:34:60
  TRACK 343 AUDIO
    TITLE "0:"
    INDEX 01 11:36:43
  TRACK 344 AUDIO
    TITLE "5:cjc087_5792"
    INDEX 01 11:38:18
  TRACK 345 AUDIO
    TITLE "0:"
    INDEX 01 11:40:47
  TRACK 346 AUDIO
    TITLE "4:cjc087_5793"
    INDEX 01 11:41:44
  TRACK 347 AUDIO
    TITLE "3:cjc087_5794"
    INDEX 01 11:46:14
  TRACK 348 AUDIO
    TITLE "0:"
    INDEX 01 11:50:02
  TRACK 349 AUDIO
    TITLE "4:cjc087_5795"
    INDEX 01 11:51:00
  TRACK 350 AUDIO
    TITLE "3:cjc087_5796"
    INDEX 01 11:53:40
  TRACK 351 AUDIO
    TITLE "0:"
    INDEX 01 11:56:30
  TRACK 352 AUDIO
    TITLE "4:cjc087_5797"
    INDEX 01 11:57:30
  TRACK 353 AUDIO
    TITLE "3:cjc087_5798"
    INDEX 01 11:58:74
  TRACK 354 AUDIO
    TITLE "0:"
    INDEX 01 12:01:00
  TRACK 355 AUDIO
    TITLE "4:cjc087_5799"
    INDEX 01 12:01:72
  TRACK 356 AUDIO
    TITLE "3:cjc087_5800"
    INDEX 01 12:06:07
  TRACK 357 AUDIO
    TITLE "0:"
    INDEX 01 12:08:51
  TRACK 358 AUDIO
    TITLE "4:cjc087_5801"
    INDEX 01 12:09:50
  TRACK 359 AUDIO
    TITLE "3:cjc087_5802"
    INDEX 01 12:11:45
  TRACK 360 AUDIO
    TITLE "0:"
    INDEX 01 12:13:31
  TRACK 361 AUDIO
    TITLE "4:cjc087_5803"
    INDEX 01 12:14:30
  TRACK 362 AUDIO
    TITLE "3:cjc087_5804"
    INDEX 01 12:16:11
  TRACK 363 AUDIO
    TITLE "0:"
    INDEX 01 12:18:42
  TRACK 364 AUDIO
    TITLE "4:cjc087_5805"
    INDEX 01 12:19:39
  TRACK 365 AUDIO
    TITLE "3:cjc087_5806"
    INDEX 01 12:21:42
  TRACK 366 AUDIO
    TITLE "0:"
    INDEX 01 12:24:07
  TRACK 367 AUDIO
    TITLE "5:cjc087_5807"
    INDEX 01 12:25:42
  TRACK 368 AUDIO
    TITLE "0:"
    INDEX 01 12:27:48
  TRACK 369 AUDIO
    TITLE "3:cjc087_5808"
    INDEX 01 12:28:46
  TRACK 370 AUDIO
    TITLE "4:cjc087_5809"
    INDEX 01 12:30:47
  TRACK 371 AUDIO
    TITLE "0:"
    INDEX 01 12:32:30
  TRACK 372 AUDIO
    TITLE "3:cjc087_5810"
    INDEX 01 12:33:27
  TRACK 373 AUDIO
    TITLE "4:cjc087_5811"
    INDEX 01 12:36:30
  TRACK 374 AUDIO
    TITLE "0:"
    INDEX 01 12:40:72
  TRACK 375 AUDIO
    TITLE "3:cjc087_5812"
    INDEX 01 12:41:70
  TRACK 376 AUDIO
    TITLE "4:cjc087_5813"
    INDEX 01 12:43:73
  TRACK 377 AUDIO
    TITLE "0:"
    INDEX 01 12:45:54
  TRACK 378 AUDIO
    TITLE "3:cjc087_5814"
    INDEX 01 12:46:52
  TRACK 379 AUDIO
    TITLE "4:cjc087_5815"
    INDEX 01 12:48:45
  TRACK 380 AUDIO
    TITLE "0:"
    INDEX 01 12:50:12
  TRACK 381 AUDIO
    TITLE "3:cjc087_5816"
    INDEX 01 12:51:10
  TRACK 382 AUDIO
    TITLE "4:cjc087_5817"
    INDEX 01 12:54:02
  TRACK 383 AUDIO
    TITLE "0:"
    INDEX 01 12:56:21
  TRACK 384 AUDIO
    TITLE "3:cjc087_5818"
    INDEX 01 12:57:18
  TRACK 385 AUDIO
    TITLE "4:cjc087_5819"
    INDEX 01 12:58:68
  TRACK 386 AUDIO
    TITLE "0:"
    INDEX 01 13:00:34
  TRACK 387 AUDIO
    TITLE "3:cjc087_5820"
    INDEX 01 13:01:32
  TRACK 388 AUDIO
    TITLE "4:cjc087_5821"
    INDEX 01 13:03:54
  TRACK 389 AUDIO
    TITLE "0:"
    INDEX 01 13:05:57
  TRACK 390 AUDIO
    TITLE "5:cjc087_5822"
    INDEX 01 13:07:16
  TRACK 391 AUDIO
    TITLE "0:"
    INDEX 01 13:09:43
  TRACK 392 AUDIO
    TITLE "4:cjc087_5823"
    INDEX 01 13:10:42
  TRACK 393 AUDIO
    TITLE "3:cjc087_5824"
    INDEX 01 13:13:33
  TRACK 394 AUDIO
    TITLE "0:"
    INDEX 01 13:15:28
  TRACK 395 AUDIO
    TITLE "4:cjc087_5825"
    INDEX 01 13:16:23
  TRACK 396 AUDIO
    TITLE "3:cjc087_5826"
    INDEX 01 13:18:05
  TRACK 397 AUDIO
    TITLE "0:"
    INDEX 01 13:20:25
  TRACK 398 AUDIO
    TITLE "4:cjc087_5827"
    INDEX 01 13:21:24
  TRACK 399 AUDIO
    TITLE "3:cjc087_5828"
    INDEX 01 13:24:15
  TRACK 400 AUDIO
    TITLE "0:"
    INDEX 01 13:26:63
  TRACK 401 AUDIO
    TITLE "4:cjc087_5829"
    INDEX 01 13:27:58
  TRACK 402 AUDIO
    TITLE "3:cjc087_5830"
    INDEX 01 13:30:16
  TRACK 403 AUDIO
    TITLE "0:"
    INDEX 01 13:32:24
  TRACK 404 AUDIO
    TITLE "4:cjc087_5831"
    INDEX 01 13:33:22
  TRACK 405 AUDIO
    TITLE "3:cjc087_5832"
    INDEX 01 13:37:25
  TRACK 406 AUDIO
    TITLE "0:"
    INDEX 01 13:40:47
  TRACK 407 AUDIO
    TITLE "4:cjc087_5833"
    INDEX 01 13:41:45
  TRACK 408 AUDIO
    TITLE "3:cjc087_5834"
    INDEX 01 13:43:50
  TRACK 409 AUDIO
    TITLE "0:"
    INDEX 01 13:45:62
  TRACK 410 AUDIO
    TITLE "4:cjc087_5835"
    INDEX 01 13:46:60
  TRACK 411 AUDIO
    TITLE "3:cjc087_5836"
    INDEX 01 13:48:53
  TRACK 412 AUDIO
    TITLE "0:"
    INDEX 01 13:51:16
  TRACK 413 AUDIO
    TITLE "5:cjc087_5837"
    INDEX 01 13:52:52
  TRACK 414 AUDIO
    TITLE "0:"
    INDEX 01 13:54:69
  TRACK 415 AUDIO
    TITLE "4:cjc087_5838"
    INDEX 01 13:55:66
  TRACK 416 AUDIO
    TITLE "3:cjc087_5839"
    INDEX 01 13:57:28
  TRACK 417 AUDIO
    TITLE "0:"
    INDEX 01 13:59:13
  TRACK 418 AUDIO
    TITLE "4:cjc087_5840"
    INDEX 01 14:00:11
  TRACK 419 AUDIO
    TITLE "3:cjc087_5841"
    INDEX 01 14:03:23
  TRACK 420 AUDIO
    TITLE "0:"
    INDEX 01 14:05:73
  TRACK 421 AUDIO
    TITLE "4:cjc087_5842"
    INDEX 01 14:06:70
  TRACK 422 AUDIO
    TITLE "3:cjc087_5843"
    INDEX 01 14:09:08
  TRACK 423 AUDIO
    TITLE "0:"
    INDEX 01 14:11:71
  TRACK 424 AUDIO
    TITLE "4:cjc087_5844"
    INDEX 01 14:12:71
  TRACK 425 AUDIO
    TITLE "3:cjc087_5845"
    INDEX 01 14:15:16
  TRACK 426 AUDIO
    TITLE "0:"
    INDEX 01 14:17:07
  TRACK 427 AUDIO
    TITLE "4:cjc087_5846"
    INDEX 01 14:18:05
  TRACK 428 AUDIO
    TITLE "3:cjc087_5847"
    INDEX 01 14:19:63
  TRACK 429 AUDIO
    TITLE "0:"
    INDEX 01 14:22:06
  TRACK 430 AUDIO
    TITLE "4:cjc087_5848"
    INDEX 01 14:23:04
  TRACK 431 AUDIO
    TITLE "3:cjc087_5849"
    INDEX 01 14:26:02
  TRACK 432 AUDIO
    TITLE "0:"
    INDEX 01 14:29:50
  TRACK 433 AUDIO
    TITLE "4:cjc087_5850"
    INDEX 01 14:30:47
  TRACK 434 AUDIO
    TITLE "3:cjc087_5851"
    INDEX 01 14:32:24
  TRACK 435 AUDIO
    TITLE "0:"
    INDEX 01 14:34:14
  TRACK 436 AUDIO
    TITLE "2:cjc087_5852"
    INDEX 01 14:35:48
  TRACK 437 AUDIO
    TITLE "0:"
    INDEX 01 14:55:20
  TRACK 438 AUDIO
    TITLE "5:cjc087_5853"
    INDEX 01 14:56:58
  TRACK 439 AUDIO
    TITLE "0:"
    INDEX 01 14:59:15
  TRACK 440 AUDIO
    TITLE "4:cjc087_5854"
    INDEX 01 15:00:13
  TRACK 441 AUDIO
    TITLE "3:cjc087_5855"
    INDEX 01 15:04:62
  TRACK 442 AUDIO
    TITLE "0:"
    INDEX 01 15:08:07
  TRACK 443 AUDIO
    TITLE "4:cjc087_5856"
    INDEX 01 15:09:04
  TRACK 444 AUDIO
    TITLE "3:cjc087_5857"
    INDEX 01 15:11:07
  TRACK 445 AUDIO
    TITLE "0:"
    INDEX 01 15:13:35
  TRACK 446 AUDIO
    TITLE "4:cjc087_5858"
    INDEX 01 15:14:31
  TRACK 447 AUDIO
    TITLE "3:cjc087_5859"
    INDEX 01 15:16:45
  TRACK 448 AUDIO
    TITLE "0:"
    INDEX 01 15:19:28
  TRACK 449 AUDIO
    TITLE "4:cjc087_5860"
    INDEX 01 15:20:27
  TRACK 450 AUDIO
    TITLE "3:cjc087_5861"
    INDEX 01 15:21:54
  TRACK 451 AUDIO
    TITLE "0:"
    INDEX 01 15:23:51
  TRACK 452 AUDIO
    TITLE "4:cjc087_5862"
    INDEX 01 15:24:51
  TRACK 453 AUDIO
    TITLE "3:cjc087_5863"
    INDEX 01 15:26:57
  TRACK 454 AUDIO
    TITLE "0:"
    INDEX 01 15:28:48
  TRACK 455 AUDIO
    TITLE "4:cjc087_5864"
    INDEX 01 15:29:48
  TRACK 456 AUDIO
    TITLE "3:cjc087_5865"
    INDEX 01 15:31:00
  TRACK 457 AUDIO
    TITLE "0:"
    INDEX 01 15:32:70
  TRACK 458 AUDIO
    TITLE "4:cjc087_5866"
    INDEX 01 15:33:69
  TRACK 459 AUDIO
    TITLE "3:cjc087_5867"
    INDEX 01 15:36:44
  TRACK 460 AUDIO
    TITLE "0:"
    INDEX 01 15:38:25
  TRACK 461 AUDIO
    TITLE "5:cjc087_5868"
    INDEX 01 15:39:62
  TRACK 462 AUDIO
    TITLE "0:"
    INDEX 01 15:42:11
  TRACK 463 AUDIO
    TITLE "4:cjc087_5869"
    INDEX 01 15:43:07
  TRACK 464 AUDIO
    TITLE "3:cjc087_5870"
    INDEX 01 15:44:44
  TRACK 465 AUDIO
    TITLE "0:"
    INDEX 01 15:47:16
  TRACK 466 AUDIO
    TITLE "4:cjc087_5871"
    INDEX 01 15:48:14
  TRACK 467 AUDIO
    TITLE "3:cjc087_5872"
    INDEX 01 15:49:62
  TRACK 468 AUDIO
    TITLE "0:"
    INDEX 01 15:51:46
  TRACK 469 AUDIO
    TITLE "4:cjc087_5873"
    INDEX 01 15:52:41
  TRACK 470 AUDIO
    TITLE "3:cjc087_5874"
    INDEX 01 15:54:50
  TRACK 471 AUDIO
    TITLE "0:"
    INDEX 01 15:57:38
  TRACK 472 AUDIO
    TITLE "4:cjc087_5875"
    INDEX 01 15:58:38
  TRACK 473 AUDIO
    TITLE "3:cjc087_5876"
    INDEX 01 16:01:11
  TRACK 474 AUDIO
    TITLE "0:"
    INDEX 01 16:03:33
  TRACK 475 AUDIO
    TITLE "4:cjc087_5877"
    INDEX 01 16:04:33
  TRACK 476 AUDIO
    TITLE "3:cjc087_5878"
    INDEX 01 16:07:51
  TRACK 477 AUDIO
    TITLE "0:"
    INDEX 01 16:11:29
  TRACK 478 AUDIO
    TITLE "4:cjc087_5879"
    INDEX 01 16:12:28
  TRACK 479 AUDIO
    TITLE "3:cjc087_5880"
    INDEX 01 16:14:49
  TRACK 480 AUDIO
    TITLE "0:"
    INDEX 01 16:17:20
  TRACK 481 AUDIO
    TITLE "4:cjc087_5881"
    INDEX 01 16:18:15
  TRACK 482 AUDIO
    TITLE "3:cjc087_5882"
    INDEX 01 16:20:51
  TRACK 483 AUDIO
    TITLE "0:"
    INDEX 01 16:23:51
  TRACK 484 AUDIO
    TITLE "5:cjc087_5883"
    INDEX 01 16:25:13
  TRACK 485 AUDIO
    TITLE "0:"
    INDEX 01 16:27:32
  TRACK 486 AUDIO
    TITLE "4:cjc087_5884"
    INDEX 01 16:28:29
  TRACK 487 AUDIO
    TITLE "3:cjc087_5885"
    INDEX 01 16:34:02
  TRACK 488 AUDIO
    TITLE "0:"
    INDEX 01 16:36:74
  TRACK 489 AUDIO
    TITLE "4:cjc087_5886"
    INDEX 01 16:37:73
  TRACK 490 AUDIO
    TITLE "3:cjc087_5887"
    INDEX 01 16:40:15
  TRACK 491 AUDIO
    TITLE "0:"
    INDEX 01 16:42:19
  TRACK 492 AUDIO
    TITLE "4:cjc087_5888"
    INDEX 01 16:43:19
  TRACK 493 AUDIO
    TITLE "3:cjc087_5889"
    INDEX 01 16:45:32
  TRACK 494 AUDIO
    TITLE "0:"
    INDEX 01 16:48:26
  TRACK 495 AUDIO
    TITLE "4:cjc087_5890"
    INDEX 01 16:49:25
  TRACK 496 AUDIO
    TITLE "3:cjc087_5891"
    INDEX 01 16:51:42
  TRACK 497 AUDIO
    TITLE "0:"
    INDEX 01 16:54:40
  TRACK 498 AUDIO
    TITLE "4:cjc087_5892"
    INDEX 01 16:55:40
  TRACK 499 AUDIO
    TITLE "3:cjc087_5893"
    INDEX 01 16:57:41
  TRACK 500 AUDIO
    TITLE "0:"
    INDEX 01 16:59:63
  TRACK 501 AUDIO
    TITLE "4:cjc087_5894"
    INDEX 01 17:00:62
  TRACK 502 AUDIO
    TITLE "3:cjc087_5895"
    INDEX 01 17:02:61
  TRACK 503 AUDIO
    TITLE "0:"
    INDEX 01 17:05:17
  TRACK 504 AUDIO
    TITLE "4:cjc087_5896"
    INDEX 01 17:06:14
  TRACK 505 AUDIO
    TITLE "3:cjc087_5897"
    INDEX 01 17:08:31
  TRACK 506 AUDIO
    TITLE "0:"
    INDEX 01 17:10:67
  TRACK 507 AUDIO
    TITLE "5:cjc087_5898"
    INDEX 01 17:12:28
  TRACK 508 AUDIO
    TITLE "0:"
    INDEX 01 17:14:55
  TRACK 509 AUDIO
    TITLE "4:cjc087_5899"
    INDEX 01 17:15:50
  TRACK 510 AUDIO
    TITLE "3:cjc087_5900"
    INDEX 01 17:17:73
  TRACK 511 AUDIO
    TITLE "0:"
    INDEX 01 17:20:32
  TRACK 512 AUDIO
    TITLE "4:cjc087_5901"
    INDEX 01 17:21:29
  TRACK 513 AUDIO
    TITLE "3:cjc087_5902"
    INDEX 01 17:22:62
  TRACK 514 AUDIO
    TITLE "0:"
    INDEX 01 17:24:69
  TRACK 515 AUDIO
    TITLE "4:cjc087_5903"
    INDEX 01 17:25:66
  TRACK 516 AUDIO
    TITLE "3:cjc087_5904"
    INDEX 01 17:28:33
  TRACK 517 AUDIO
    TITLE "0:"
    INDEX 01 17:30:62
  TRACK 518 AUDIO
    TITLE "4:cjc087_5905"
    INDEX 01 17:31:59
  TRACK 519 AUDIO
    TITLE "3:cjc087_5906"
    INDEX 01 17:37:46
  TRACK 520 AUDIO
    TITLE "0:"
    INDEX 01 17:39:21
  TRACK 521 AUDIO
    TITLE "4:cjc087_5907"
    INDEX 01 17:40:25
  TRACK 522 AUDIO
    TITLE "3:cjc087_5908"
    INDEX 01 17:42:14
  TRACK 523 AUDIO
    TITLE "0:"
    INDEX 01 17:43:52
  TRACK 524 AUDIO
    TITLE "4:cjc087_5909"
    INDEX 01 17:44:50
  TRACK 525 AUDIO
    TITLE "3:cjc087_5910"
    INDEX 01 17:46:31
  TRACK 526 AUDIO
    TITLE "0:"
    INDEX 01 17:48:14
  TRACK 527 AUDIO
    TITLE "4:cjc087_5911"
    INDEX 01 17:49:14
  TRACK 528 AUDIO
    TITLE "3:cjc087_5912"
    INDEX 01 17:50:49
  TRACK 529 AUDIO
    TITLE "0:"
    INDEX 01 17:52:44
